<svg width="300" height="300" viewBox="0 0 300 300" fill="none" xmlns="http://www.w3.org/2000/svg">
<rect width="300" height="300" rx="150" fill="white"/>
<rect x="92" y="33" width="116" height="44" rx="22" fill="black"/>
<path d="M172 113L253.406 160C263.929 166.075 267.534 179.53 261.459 190.053V190.053C255.384 200.575 241.929 204.18 231.406 198.105L150 151.105L172 113Z" fill="black"/>
<path d="M39 190.053C32.9249 179.53 36.5301 166.075 47.0526 160L128.459 113L150.459 151.105L69.0526 198.105C58.5301 204.18 45.0751 200.575 39 190.053V190.053Z" fill="black"/>
<rect x="92" y="215" width="116" height="44" rx="22" fill="black"/>
<path d="M150 154L127.483 112.75H172.517L150 154Z" fill="#C4C4C4"/>
</svg>
